<svg width="165" height="58" viewBox="0 0 165 58" fill="none" xmlns="http://www.w3.org/2000/svg">
<path d="M8.66472 45.7975C7.92561 47.6511 11.0602 49.0374 12.6067 47.8982C14.7953 46.2859 13.1059 43.4969 10.6357 42.9554C6.00258 42.1785 1.8996 45.0903 2.00149 49.0103C2.08913 52.3821 4.59563 54.1992 7.55605 54.9482C8.98572 55.3099 10.4745 55.5278 11.3748 55.5596C22.9543 55.9687 38.682 44.5668 54.5576 45.0165C58.3163 45.1229 67.1525 46.4153 67.1525 51.2385C67.0036 53.2157 65.5665 55.056 63.0698 54.8157M63.0698 54.8157C62.9365 54.8029 62.7999 54.7849 62.6601 54.7614M63.0698 54.8157C62.9318 54.8095 62.7948 54.791 62.6601 54.7614M62.6601 54.7614C60.9856 54.3943 60.0279 52.204 61.5116 51.111C62.56 50.3388 64.2447 51.2795 63.4826 52.7175" stroke="white" stroke-width="3"/>
<path d="M156.335 45.7975C157.074 47.6511 153.939 49.0374 152.393 47.8982C150.204 46.2859 151.893 43.4969 154.364 42.9554C158.997 42.1785 163.1 45.0903 162.998 49.0103C162.91 52.3821 160.404 54.1992 157.443 54.9482C156.014 55.3099 154.525 55.5278 153.624 55.5596C142.045 55.9687 126.317 44.5668 110.442 45.0165C106.683 45.1229 97.8468 46.4153 97.8468 51.2385C97.9956 53.2157 99.4327 55.056 101.929 54.8157M101.929 54.8157C102.063 54.8029 102.199 54.7849 102.339 54.7614M101.929 54.8157C102.067 54.8095 102.204 54.791 102.339 54.7614M102.339 54.7614C104.014 54.3943 104.971 52.204 103.488 51.111C102.439 50.3388 100.755 51.2795 101.517 52.7175" stroke="white" stroke-width="3"/>
<path d="M82.2101 37.9972C82.2101 36.408 81.7533 34.8532 80.8954 33.5217C80.0375 32.1903 78.8154 31.1396 77.3777 30.4976C75.9401 29.8556 74.3489 29.6499 72.7978 29.9056C71.2467 30.1612 69.8025 30.8672 68.6409 31.9376C67.4793 33.008 66.6504 34.3966 66.255 35.9346C65.8596 37.4727 65.9148 39.0937 66.4139 40.6006C66.913 42.1074 67.8344 43.4352 69.066 44.4222C70.2977 45.4093 70.8298 45.7111 72.4806 46.1955C74.1022 46.4937 75.3816 46.1377 76.3076 45.6217C77.2336 45.1058 77.9541 44.2812 78.3462 43.2883C78.7383 42.2955 78.7778 41.1959 78.458 40.1769C78.1382 39.1579 77.4789 38.2826 76.5924 37.7C75.7059 37.1175 74.647 36.8637 73.5963 36.9821C72.5455 37.1004 71.5678 37.5835 70.8298 38.349C70.0918 39.1146 69.6391 40.1152 69.5489 41.1803C69.4587 42.2455 69.8271 43.3634 70.4167 44.1087" stroke="white" stroke-width="3" stroke-linecap="round"/>
<path d="M82.2101 37.9972C82.2101 36.408 82.675 34.8532 83.5482 33.5217C84.4215 32.1903 85.6654 31.1396 87.1287 30.4976C88.592 29.8556 90.2116 29.6499 91.7904 29.9056C93.3692 30.1612 94.8392 30.8672 96.0215 31.9376C97.2039 33.008 98.0476 34.3966 98.45 35.9346C98.8525 37.4727 98.7963 39.0937 98.2883 40.6006C97.7803 42.1074 96.8425 43.4352 95.5888 44.4222C94.3352 45.4093 93.7936 45.7111 92.1133 46.1955C90.4628 46.4937 89.1604 46.1377 88.2179 45.6217C87.2754 45.1058 86.5421 44.2812 86.143 43.2883C85.7439 42.2955 85.7036 41.1959 86.0291 40.1769C86.3546 39.1579 87.0257 38.2826 87.928 37.7C88.8304 37.1175 89.9081 36.8637 90.9777 36.9821C92.0472 37.1004 93.0424 37.5835 93.7936 38.349C94.5447 39.1146 95.0055 40.1152 95.0973 41.1803C95.1891 42.2455 94.8142 43.3634 94.214 44.1087" stroke="white" stroke-width="3" stroke-linecap="round"/>
<path d="M68.8899 18.9377C79.1095 18.3846 82.1822 31.1511 82.3549 35.011C82.5275 31.1511 85.6002 18.3846 95.8198 18.9377C94.784 15.9995 89.0873 14.4441 85.8074 15.9995C86.0376 13.3495 85.6693 4.21244 82.3548 2.0002C79.0404 4.21244 78.6721 13.3495 78.9023 15.9995C75.6224 14.4441 69.9257 15.9995 68.8899 18.9377Z" stroke="white" stroke-width="3"/>
</svg>
