<svg width="295" height="478" viewBox="0 0 295 478" fill="none" xmlns="http://www.w3.org/2000/svg">
<path d="M41.922 109.356C66.4259 174.444 146.063 145.346 153.338 112.802C163.293 147.26 241.016 172.913 264.754 109.356C291.172 38.5243 162.527 -25.0327 153.338 -35.3702C144.149 -26.947 15.5037 39.6729 41.922 109.356Z" fill="#C05252"/>
<g clip-path="url(#clip0_1_216)">
<path d="M30.9701 257.88C23.082 305.683 81.2627 315.867 96.9871 298.767C90.9903 323.023 128.946 365.571 165.405 335.496C206.014 301.965 150.54 218.812 148.598 209.375C140.12 211.256 39.3036 206.638 30.9701 257.88Z" fill="#C05252"/>
</g>
<g clip-path="url(#clip1_1_216)">
<path d="M98.958 449.739C121.824 468.502 144.969 440.85 140.727 427.316C151.722 437.891 185.804 430.811 181.031 402.354C175.7 370.648 114.802 374.595 109.219 372.741C107.626 377.798 74.4096 429.692 98.958 449.739Z" fill="#C05252"/>
</g>
<g clip-path="url(#clip2_1_216)">
<path d="M232.02 335.005C225.851 348.625 242.38 356.308 248.433 352.466C244.708 359.218 252.624 374.932 265.894 368.879C280.678 362.128 270.783 332.91 270.958 329.942C268.281 329.825 238.597 320.396 232.02 335.005Z" fill="#C05252"/>
</g>
<defs>
<clipPath id="clip0_1_216">
<rect width="170.701" height="170.701" fill="white" transform="translate(147.832 381.403) rotate(-150)"/>
</clipPath>
<clipPath id="clip1_1_216">
<rect width="104.215" height="104.215" fill="white" transform="translate(199.939 425.659) rotate(150)"/>
</clipPath>
<clipPath id="clip2_1_216">
<rect width="52.6793" height="52.6793" fill="white" transform="translate(256.989 381.16) rotate(-135)"/>
</clipPath>
</defs>
</svg>
