<svg width="295" height="544" viewBox="0 0 295 544" fill="none" xmlns="http://www.w3.org/2000/svg">
<path d="M252.654 368.644C228.15 303.556 148.513 332.654 141.238 365.198C131.283 330.74 53.5601 305.087 29.8219 368.644C3.40367 439.476 132.049 503.033 141.238 513.37C150.427 504.947 279.072 438.327 252.654 368.644Z" fill="#C05252"/>
<g clip-path="url(#clip0_1_207)">
<path d="M263.606 220.12C271.494 172.318 213.313 162.134 197.589 179.234C203.586 154.977 165.631 112.429 129.172 142.505C88.5618 176.035 144.036 259.188 145.979 268.626C154.456 266.745 255.272 271.362 263.606 220.12Z" fill="#C05252"/>
</g>
<g clip-path="url(#clip1_1_207)">
<path d="M195.618 28.2605C172.752 9.49792 149.607 37.1503 153.849 50.6839C142.855 40.109 108.773 47.1885 113.545 75.6457C118.877 107.352 179.775 103.405 185.357 105.259C186.951 100.202 220.167 48.3083 195.618 28.2605Z" fill="#C05252"/>
</g>
<g clip-path="url(#clip2_1_207)">
<path d="M62.556 142.995C68.7255 129.375 52.1959 121.692 46.1428 125.534C49.8677 118.782 41.9521 103.068 28.6819 109.121C13.8983 115.872 23.7928 145.09 23.6182 148.058C26.2956 148.175 55.979 157.604 62.556 142.995Z" fill="#C05252"/>
</g>
<defs>
<clipPath id="clip0_1_207">
<rect width="170.701" height="170.701" fill="white" transform="translate(146.745 96.5977) rotate(30)"/>
</clipPath>
<clipPath id="clip1_1_207">
<rect width="104.215" height="104.215" fill="white" transform="translate(94.637 52.3413) rotate(-30)"/>
</clipPath>
<clipPath id="clip2_1_207">
<rect width="52.6793" height="52.6793" fill="white" transform="translate(37.5869 96.8398) rotate(45)"/>
</clipPath>
</defs>
</svg>
